# xmcd
#
# Track frame offsets:
#	150
#	20894
#	39968
#	63892
#	82824
#	102626
#	124506
#	149649
#
# Disc length: 2269 seconds
#
# Revision: 0
# Processed by: cddbd v1.5PL3 Copyright (c) Steve Scherf et al.
# Submitted via: dBpowerAMP V4.0
#
DISCID=6808db08
DTITLE=ali X - Shiraz
DYEAR=2004
DGENRE=Blues
TTITLE0=Berags
TTITLE1=Refaghat
TTITLE2=Hay To
TTITLE3=Jodaee
TTITLE4=Mohabbat
TTITLE5=Shiraz
TTITLE6=Avalin Bar
TTITLE7=Be Yade To
EXTD=The Album Is Made By ali X. Music, Lyrics And Designs Are Belong To alix And Have Been ©®.\nFor More Info Please Contact aliX@kozaz.com.\n\nArtist Name - ali X\nAlbum Name: Shiraz\nSite - www.kozaz.com
EXTT0=
EXTT1=
EXTT2=
EXTT3=
EXTT4=
EXTT5=
EXTT6=
EXTT7=
PLAYORDER=
